<svg xmlns="http://www.w3.org/2000/svg" width="67" height="77" viewBox="0 0 67 77" fill="none">
  <path d="M44.4497 36.575C44.4497 38.9235 42.7269 40.8485 40.5446 40.8485C38.4006 40.8485 36.6394 38.9235 36.6394 36.575C36.6394 34.2265 38.3623 32.3015 40.5446 32.3015C42.7269 32.3015 44.4497 34.2265 44.4497 36.575ZM26.5703 32.3015C24.388 32.3015 22.6651 34.2265 22.6651 36.575C22.6651 38.9235 24.4263 40.8485 26.5703 40.8485C28.7526 40.8485 30.4754 38.9235 30.4754 36.575C30.5137 34.2265 28.7526 32.3015 26.5703 32.3015ZM67 7.931V77C57.3547 68.4286 60.4394 71.2659 49.2354 60.7915L51.2646 67.914H7.84857C3.52229 67.914 0 64.372 0 59.983V7.931C0 3.542 3.52229 0 7.84857 0H59.1514C63.4777 0 67 3.542 67 7.931ZM56.0886 44.429C56.0886 32.032 50.5754 21.9835 50.5754 21.9835C45.0623 17.8255 39.8171 17.941 39.8171 17.941L39.2811 18.557C45.7897 20.559 48.8143 23.4465 48.8143 23.4465C39.7198 18.4341 29.0367 18.4332 20.2149 22.33C18.7983 22.9845 17.956 23.4465 17.956 23.4465C17.956 23.4465 21.1337 20.405 28.0251 18.403L27.6423 17.941C27.6423 17.941 22.3971 17.8255 16.884 21.9835C16.884 21.9835 11.3709 32.032 11.3709 44.429C11.3709 44.429 14.5869 50.0115 23.048 50.281C23.048 50.281 24.4646 48.5485 25.6131 47.0855C20.7509 45.6225 18.9131 42.5425 18.9131 42.5425C19.4764 42.9389 20.4051 43.4528 20.4829 43.505C26.9451 47.1442 36.1244 48.3364 44.3731 44.8525C45.7131 44.352 47.2063 43.6205 48.776 42.581C48.776 42.581 46.8617 45.738 41.8463 47.1625C42.9949 48.6255 44.3731 50.281 44.3731 50.281C52.8343 50.0115 56.0886 44.429 56.0886 44.429Z" fill="white"/>
</svg>