<svg xmlns="http://www.w3.org/2000/svg" width="67" height="65" viewBox="0 0 67 65" fill="none">
  <path d="M22.4099 52.3379C22.4099 52.6067 22.0992 52.8218 21.7075 52.8218C21.2617 52.8621 20.951 52.647 20.951 52.3379C20.951 52.0691 21.2617 51.854 21.6534 51.854C22.0587 51.8137 22.4099 52.0288 22.4099 52.3379ZM18.2089 51.7331C18.1143 52.0019 18.3845 52.311 18.7897 52.3917C19.1409 52.5261 19.5462 52.3917 19.6272 52.1229C19.7083 51.854 19.4516 51.5449 19.0464 51.4239C18.6952 51.3299 18.3034 51.4643 18.2089 51.7331ZM24.1794 51.5046C23.7877 51.5987 23.5175 51.854 23.5581 52.1632C23.5986 52.432 23.9498 52.6067 24.355 52.5126C24.7468 52.4186 25.0169 52.1632 24.9764 51.8944C24.9359 51.639 24.5712 51.4643 24.1794 51.5046ZM33.0677 0C14.3321 0 0 14.153 0 32.7952C0 47.7009 9.42863 60.4561 22.8962 64.9452C24.6252 65.2544 25.2331 64.1926 25.2331 63.3189C25.2331 62.4856 25.1925 57.8889 25.1925 55.0664C25.1925 55.0664 15.7369 57.0825 13.7512 51.061C13.7512 51.061 12.2113 47.1498 9.99597 46.1418C9.99597 46.1418 6.90262 44.0316 10.2121 44.0719C10.2121 44.0719 13.5756 44.3407 15.4262 47.5396C18.3845 52.7277 23.3419 51.2358 25.2736 50.3487C25.5843 48.1982 26.4623 46.7063 27.4349 45.8192C19.8839 44.9859 12.2653 43.8972 12.2653 30.9673C12.2653 27.2711 13.2919 25.4163 15.4532 23.0507C15.102 22.1771 13.9538 18.575 15.8044 13.9245C18.6276 13.0509 25.125 17.5535 25.125 17.5535C27.8266 16.8008 30.7308 16.411 33.6081 16.411C36.4853 16.411 39.3895 16.8008 42.0911 17.5535C42.0911 17.5535 48.5885 13.0374 51.4117 13.9245C53.2623 18.5884 52.1141 22.1771 51.7629 23.0507C53.9242 25.4297 55.248 27.2845 55.248 30.9673C55.248 43.9375 47.2917 44.9724 39.7407 45.8192C40.9835 46.881 42.0371 48.8971 42.0371 52.0556C42.0371 56.5852 41.9966 62.1899 41.9966 63.292C41.9966 64.1657 42.6179 65.2275 44.3335 64.9184C57.8415 60.4561 67 47.7009 67 32.7952C67 14.153 51.8034 0 33.0677 0ZM13.1298 46.3568C12.9542 46.4912 12.9948 46.8004 13.2244 47.0557C13.4405 47.2708 13.7512 47.3649 13.9268 47.1901C14.1024 47.0557 14.0619 46.7466 13.8323 46.4912C13.6161 46.2762 13.3054 46.1821 13.1298 46.3568ZM11.671 45.2681C11.5764 45.4428 11.7115 45.6579 11.9817 45.7923C12.1978 45.9267 12.4679 45.8864 12.5625 45.6982C12.6571 45.5235 12.522 45.3084 12.2518 45.174C11.9817 45.0934 11.7655 45.1337 11.671 45.2681ZM16.0476 50.053C15.8315 50.2277 15.9125 50.6309 16.2232 50.8863C16.5339 51.1954 16.9256 51.2358 17.1012 51.0207C17.2768 50.846 17.1958 50.4428 16.9256 50.1874C16.6284 49.8783 16.2232 49.8379 16.0476 50.053ZM14.5077 48.0772C14.2915 48.2116 14.2915 48.5611 14.5077 48.8702C14.7238 49.1794 15.0885 49.3138 15.2641 49.1794C15.4802 49.0046 15.4802 48.6552 15.2641 48.346C15.075 48.0369 14.7238 47.9025 14.5077 48.0772Z" fill="white"/>
</svg>