<svg xmlns="http://www.w3.org/2000/svg" width="67" height="59" viewBox="0 0 67 59" fill="none">
  <path d="M18.6111 51.625C15.6333 51.625 12.6556 49.0438 11.1667 47.9375C3.72222 42.775 1.48889 40.9313 0 39.825V55.3125C0 57.3487 1.66686 59 3.72222 59H33.5C35.5554 59 37.2222 57.3487 37.2222 55.3125V39.825C35.7333 40.9313 33.5 42.775 26.0556 47.9375C24.5667 49.0438 21.5889 51.625 18.6111 51.625ZM33.5 29.5H3.72222C1.66686 29.5 0 31.1513 0 33.1875V35.0312C2.97778 37.2438 2.60555 37.2438 13.4 44.9875C14.5167 45.725 16.75 47.9375 18.6111 47.9375C20.4722 47.9375 22.7056 45.725 23.8222 45.3563C34.6167 37.6125 34.2444 37.6125 37.2222 35.4V33.1875C37.2222 31.1513 35.5554 29.5 33.5 29.5ZM63.2778 18.4375H26.0556C24.0002 18.4375 22.3333 20.0888 22.3333 22.125V25.8125H33.5C37.363 25.8125 40.5478 28.7418 40.9107 32.4754L40.9444 32.45V47.9375H63.2778C65.3331 47.9375 67 46.2862 67 44.25V22.125C67 20.0888 65.3331 18.4375 63.2778 18.4375ZM59.5556 33.1875H52.1111V25.8125H59.5556V33.1875ZM18.6111 22.125C18.6111 18.0584 21.9506 14.75 26.0556 14.75H52.1111V3.6875C52.1111 1.65131 50.4443 0 48.3889 0H11.1667C9.1113 0 7.44444 1.65131 7.44444 3.6875V25.8125H18.6111V22.125Z" fill="white"/>
</svg>